<mxfile host="app.diagrams.net" modified="2021-11-22T08:09:18.115Z" agent="5.0 (Windows NT 10.0; Win64; x64) AppleWebKit/537.36 (KHTML, like Gecko) Chrome/95.0.4638.69 Safari/537.36" etag="LZjhZYWIYsIRllsukA1s" version="15.8.2" type="github">
  <diagram id="C5RBs43oDa-KdzZeNtuy" name="Page-1">
    <mxGraphModel dx="1416" dy="794" grid="1" gridSize="10" guides="1" tooltips="1" connect="1" arrows="1" fold="1" page="1" pageScale="1" pageWidth="827" pageHeight="1169" math="0" shadow="0">
      <root>
        <mxCell id="WIyWlLk6GJQsqaUBKTNV-0" />
        <mxCell id="WIyWlLk6GJQsqaUBKTNV-1" parent="WIyWlLk6GJQsqaUBKTNV-0" />
        <mxCell id="gJ8kAtWAAKw_t7g4Scvq-7" value="" style="edgeStyle=orthogonalEdgeStyle;rounded=0;orthogonalLoop=1;jettySize=auto;html=1;" edge="1" parent="WIyWlLk6GJQsqaUBKTNV-1">
          <mxGeometry relative="1" as="geometry">
            <mxPoint x="270" y="206" as="sourcePoint" />
            <mxPoint x="457" y="206" as="targetPoint" />
          </mxGeometry>
        </mxCell>
        <mxCell id="gJ8kAtWAAKw_t7g4Scvq-11" value="" style="edgeStyle=orthogonalEdgeStyle;rounded=0;orthogonalLoop=1;jettySize=auto;html=1;fontFamily=Helvetica;fontSize=14;" edge="1" parent="WIyWlLk6GJQsqaUBKTNV-1" source="gJ8kAtWAAKw_t7g4Scvq-2" target="gJ8kAtWAAKw_t7g4Scvq-8">
          <mxGeometry relative="1" as="geometry" />
        </mxCell>
        <mxCell id="gJ8kAtWAAKw_t7g4Scvq-2" value="&lt;font style=&quot;font-size: 14px&quot;&gt;Kube ApiServer&lt;/font&gt;" style="rounded=1;whiteSpace=wrap;html=1;" vertex="1" parent="WIyWlLk6GJQsqaUBKTNV-1">
          <mxGeometry x="170" y="160" width="100" height="90" as="geometry" />
        </mxCell>
        <mxCell id="gJ8kAtWAAKw_t7g4Scvq-3" value="" style="endArrow=classic;html=1;rounded=0;" edge="1" parent="WIyWlLk6GJQsqaUBKTNV-1">
          <mxGeometry width="50" height="50" relative="1" as="geometry">
            <mxPoint x="50" y="205" as="sourcePoint" />
            <mxPoint x="170" y="205" as="targetPoint" />
          </mxGeometry>
        </mxCell>
        <mxCell id="gJ8kAtWAAKw_t7g4Scvq-4" value="PATCH&amp;nbsp;" style="text;html=1;align=center;verticalAlign=middle;resizable=0;points=[];autosize=1;strokeColor=none;fillColor=none;" vertex="1" parent="WIyWlLk6GJQsqaUBKTNV-1">
          <mxGeometry x="80" y="185" width="60" height="20" as="geometry" />
        </mxCell>
        <mxCell id="gJ8kAtWAAKw_t7g4Scvq-5" value="ANNOTATE Pod" style="text;html=1;resizable=0;autosize=1;align=center;verticalAlign=middle;points=[];fillColor=none;strokeColor=none;rounded=0;" vertex="1" parent="WIyWlLk6GJQsqaUBKTNV-1">
          <mxGeometry x="60" y="205" width="100" height="20" as="geometry" />
        </mxCell>
        <mxCell id="gJ8kAtWAAKw_t7g4Scvq-32" value="" style="edgeStyle=orthogonalEdgeStyle;rounded=0;orthogonalLoop=1;jettySize=auto;html=1;fontFamily=Helvetica;fontSize=12;" edge="1" parent="WIyWlLk6GJQsqaUBKTNV-1" source="gJ8kAtWAAKw_t7g4Scvq-6">
          <mxGeometry relative="1" as="geometry">
            <mxPoint x="517" y="100" as="targetPoint" />
          </mxGeometry>
        </mxCell>
        <mxCell id="gJ8kAtWAAKw_t7g4Scvq-6" value="&lt;font style=&quot;font-size: 14px&quot;&gt;Mutating Admission Webhook service&lt;/font&gt;" style="rounded=1;whiteSpace=wrap;html=1;" vertex="1" parent="WIyWlLk6GJQsqaUBKTNV-1">
          <mxGeometry x="457" y="160" width="120" height="90" as="geometry" />
        </mxCell>
        <mxCell id="gJ8kAtWAAKw_t7g4Scvq-13" value="" style="edgeStyle=orthogonalEdgeStyle;rounded=0;orthogonalLoop=1;jettySize=auto;html=1;fontFamily=Helvetica;fontSize=14;" edge="1" parent="WIyWlLk6GJQsqaUBKTNV-1" source="gJ8kAtWAAKw_t7g4Scvq-8" target="gJ8kAtWAAKw_t7g4Scvq-12">
          <mxGeometry relative="1" as="geometry" />
        </mxCell>
        <mxCell id="gJ8kAtWAAKw_t7g4Scvq-39" value="" style="edgeStyle=orthogonalEdgeStyle;rounded=0;orthogonalLoop=1;jettySize=auto;html=1;fontFamily=Helvetica;fontSize=12;" edge="1" parent="WIyWlLk6GJQsqaUBKTNV-1" source="gJ8kAtWAAKw_t7g4Scvq-8">
          <mxGeometry relative="1" as="geometry">
            <mxPoint x="110" y="350" as="targetPoint" />
          </mxGeometry>
        </mxCell>
        <mxCell id="gJ8kAtWAAKw_t7g4Scvq-8" value="Need to mutate PodSpec?" style="rhombus;whiteSpace=wrap;html=1;" vertex="1" parent="WIyWlLk6GJQsqaUBKTNV-1">
          <mxGeometry x="170" y="300" width="100" height="100" as="geometry" />
        </mxCell>
        <mxCell id="gJ8kAtWAAKw_t7g4Scvq-10" value="PATCH&amp;nbsp;" style="text;html=1;align=center;verticalAlign=middle;resizable=0;points=[];autosize=1;strokeColor=none;fillColor=none;" vertex="1" parent="WIyWlLk6GJQsqaUBKTNV-1">
          <mxGeometry x="80" y="185" width="60" height="20" as="geometry" />
        </mxCell>
        <mxCell id="gJ8kAtWAAKw_t7g4Scvq-43" value="" style="edgeStyle=orthogonalEdgeStyle;rounded=0;orthogonalLoop=1;jettySize=auto;html=1;fontFamily=Helvetica;fontSize=14;dashed=1;" edge="1" parent="WIyWlLk6GJQsqaUBKTNV-1">
          <mxGeometry relative="1" as="geometry">
            <mxPoint x="539" y="390" as="sourcePoint" />
            <mxPoint x="539" y="560" as="targetPoint" />
          </mxGeometry>
        </mxCell>
        <mxCell id="gJ8kAtWAAKw_t7g4Scvq-12" value="Etcd" style="shape=cylinder3;whiteSpace=wrap;html=1;boundedLbl=1;backgroundOutline=1;size=15;fontFamily=Helvetica;fontSize=14;" vertex="1" parent="WIyWlLk6GJQsqaUBKTNV-1">
          <mxGeometry x="460" y="310" width="110" height="80" as="geometry" />
        </mxCell>
        <mxCell id="gJ8kAtWAAKw_t7g4Scvq-14" value="&lt;span style=&quot;font-size: 12px&quot;&gt;Yes&lt;/span&gt;" style="text;html=1;resizable=0;autosize=1;align=center;verticalAlign=middle;points=[];fillColor=none;strokeColor=none;rounded=0;fontFamily=Helvetica;fontSize=14;" vertex="1" parent="WIyWlLk6GJQsqaUBKTNV-1">
          <mxGeometry x="344" y="330" width="40" height="20" as="geometry" />
        </mxCell>
        <mxCell id="gJ8kAtWAAKw_t7g4Scvq-34" value="" style="edgeStyle=orthogonalEdgeStyle;rounded=0;orthogonalLoop=1;jettySize=auto;html=1;fontFamily=Helvetica;fontSize=12;startArrow=none;" edge="1" parent="WIyWlLk6GJQsqaUBKTNV-1" source="gJ8kAtWAAKw_t7g4Scvq-36">
          <mxGeometry relative="1" as="geometry">
            <mxPoint x="517" y="100" as="sourcePoint" />
            <mxPoint x="220" y="100" as="targetPoint" />
            <Array as="points">
              <mxPoint x="517" y="100" />
              <mxPoint x="220" y="100" />
            </Array>
          </mxGeometry>
        </mxCell>
        <mxCell id="gJ8kAtWAAKw_t7g4Scvq-35" value="" style="edgeStyle=orthogonalEdgeStyle;rounded=0;orthogonalLoop=1;jettySize=auto;html=1;fontFamily=Helvetica;fontSize=12;" edge="1" parent="WIyWlLk6GJQsqaUBKTNV-1" target="gJ8kAtWAAKw_t7g4Scvq-2">
          <mxGeometry relative="1" as="geometry">
            <mxPoint x="220" y="100" as="sourcePoint" />
          </mxGeometry>
        </mxCell>
        <mxCell id="gJ8kAtWAAKw_t7g4Scvq-36" value="Update Container list" style="text;html=1;resizable=0;autosize=1;align=center;verticalAlign=middle;points=[];fillColor=none;strokeColor=none;rounded=0;fontFamily=Helvetica;fontSize=12;" vertex="1" parent="WIyWlLk6GJQsqaUBKTNV-1">
          <mxGeometry x="310" y="80" width="130" height="20" as="geometry" />
        </mxCell>
        <mxCell id="gJ8kAtWAAKw_t7g4Scvq-40" value="" style="edgeStyle=orthogonalEdgeStyle;rounded=0;orthogonalLoop=1;jettySize=auto;html=1;fontFamily=Helvetica;fontSize=12;" edge="1" parent="WIyWlLk6GJQsqaUBKTNV-1" target="gJ8kAtWAAKw_t7g4Scvq-5">
          <mxGeometry relative="1" as="geometry">
            <mxPoint x="110" y="350" as="sourcePoint" />
          </mxGeometry>
        </mxCell>
        <mxCell id="gJ8kAtWAAKw_t7g4Scvq-41" value="No" style="text;html=1;resizable=0;autosize=1;align=center;verticalAlign=middle;points=[];fillColor=none;strokeColor=none;rounded=0;fontFamily=Helvetica;fontSize=12;" vertex="1" parent="WIyWlLk6GJQsqaUBKTNV-1">
          <mxGeometry x="110" y="280" width="30" height="20" as="geometry" />
        </mxCell>
        <mxCell id="gJ8kAtWAAKw_t7g4Scvq-42" value="&lt;font style=&quot;font-size: 14px&quot;&gt;Kubelet&lt;/font&gt;" style="rounded=1;whiteSpace=wrap;html=1;fontFamily=Helvetica;fontSize=12;" vertex="1" parent="WIyWlLk6GJQsqaUBKTNV-1">
          <mxGeometry x="450" y="560" width="125" height="80" as="geometry" />
        </mxCell>
        <mxCell id="gJ8kAtWAAKw_t7g4Scvq-44" value="&lt;font style=&quot;font-size: 12px&quot;&gt;WATCH PodSpec Update&lt;/font&gt;" style="text;html=1;resizable=0;autosize=1;align=center;verticalAlign=middle;points=[];fillColor=none;strokeColor=none;rounded=0;fontFamily=Helvetica;fontSize=14;" vertex="1" parent="WIyWlLk6GJQsqaUBKTNV-1">
          <mxGeometry x="537" y="466" width="150" height="20" as="geometry" />
        </mxCell>
        <mxCell id="gJ8kAtWAAKw_t7g4Scvq-45" value="" style="endArrow=classic;html=1;rounded=0;fontFamily=Helvetica;fontSize=12;exitX=0.308;exitY=-0.037;exitDx=0;exitDy=0;exitPerimeter=0;" edge="1" parent="WIyWlLk6GJQsqaUBKTNV-1" source="gJ8kAtWAAKw_t7g4Scvq-42">
          <mxGeometry width="50" height="50" relative="1" as="geometry">
            <mxPoint x="360" y="390" as="sourcePoint" />
            <mxPoint x="489" y="390" as="targetPoint" />
          </mxGeometry>
        </mxCell>
        <mxCell id="gJ8kAtWAAKw_t7g4Scvq-46" value="&lt;div style=&quot;text-align: left&quot;&gt;&lt;span style=&quot;font-size: 12px&quot;&gt;If resource fits, set duplicate state&amp;nbsp;&lt;/span&gt;&lt;/div&gt;&lt;div style=&quot;text-align: left&quot;&gt;&lt;span style=&quot;font-size: 12px&quot;&gt;as InProgress, then create and start containers.&amp;nbsp;&lt;/span&gt;&lt;/div&gt;&lt;font style=&quot;font-size: 12px&quot;&gt;&lt;div style=&quot;text-align: left&quot;&gt;&lt;span&gt;Otherwise, set duplicate state as Infeasible.&lt;/span&gt;&lt;/div&gt;&lt;div style=&quot;text-align: left&quot;&gt;PLEG will finally update the duplicate as Nil&lt;/div&gt;&lt;div style=&quot;text-align: left&quot;&gt;when containers are up and running&amp;nbsp;&lt;/div&gt;&lt;/font&gt;" style="text;html=1;resizable=0;autosize=1;align=center;verticalAlign=middle;points=[];fillColor=none;strokeColor=none;rounded=0;fontFamily=Helvetica;fontSize=14;" vertex="1" parent="WIyWlLk6GJQsqaUBKTNV-1">
          <mxGeometry x="229" y="428" width="270" height="90" as="geometry" />
        </mxCell>
        <mxCell id="gJ8kAtWAAKw_t7g4Scvq-47" value="Set duplicate state as Proposed" style="text;html=1;resizable=0;autosize=1;align=center;verticalAlign=middle;points=[];fillColor=none;strokeColor=none;rounded=0;fontFamily=Helvetica;fontSize=12;" vertex="1" parent="WIyWlLk6GJQsqaUBKTNV-1">
          <mxGeometry x="270" y="352" width="180" height="20" as="geometry" />
        </mxCell>
      </root>
    </mxGraphModel>
  </diagram>
</mxfile>
